<?xml version="1.0" standalone="no"?>
<!DOCTYPE svg PUBLIC "-//W3C//DTD SVG 20010904//EN"
 "http://www.w3.org/TR/2001/REC-SVG-20010904/DTD/svg10.dtd">
<svg version="1.0" xmlns="http://www.w3.org/2000/svg"
 width="699.000000pt" height="699.000000pt" viewBox="0 0 699.000000 699.000000"
 preserveAspectRatio="xMidYMid meet">
<g transform="translate(0.000000,699.000000) scale(0.100000,-0.100000)"
fill="#ffffff" stroke="none">
<path d="M2720 6720 c-145 -37 -192 -54 -287 -105 l-83 -44 -157 1 c-172 0
-246 -12 -389 -61 -303 -104 -583 -396 -714 -744 -81 -215 -135 -497 -135
-707 0 -275 90 -619 233 -890 22 -41 68 -128 102 -193 75 -143 112 -243 150
-402 32 -132 100 -465 155 -760 110 -583 182 -872 295 -1180 173 -471 409
-873 620 -1053 178 -152 354 -203 531 -154 93 26 153 64 234 147 128 131 240
320 288 483 13 45 26 85 30 88 4 4 7 -16 7 -44 0 -133 53 -369 111 -488 102
-215 332 -374 540 -374 82 0 230 45 318 97 190 113 368 305 515 556 234 399
389 860 527 1566 179 921 247 1144 478 1555 269 481 333 906 210 1389 -51 202
-149 453 -230 591 -200 337 -489 565 -836 658 -110 30 -129 32 -278 32 -128
-1 -180 -5 -260 -23 -143 -33 -272 -75 -412 -137 -161 -71 -232 -88 -353 -81
-104 6 -147 18 -272 76 -197 92 -389 167 -492 192 -45 10 -97 24 -117 29 -67
19 -216 10 -329 -20z m304 -360 c72 -11 135 -34 341 -125 70 -31 152 -66 183
-77 l56 -21 -52 -19 c-28 -11 -61 -31 -72 -45 -47 -60 -9 -155 68 -168 86 -14
365 64 607 170 238 104 267 115 338 126 87 14 183 4 263 -26 33 -12 132 -62
220 -111 142 -79 164 -88 211 -89 40 0 57 5 73 20 47 48 42 128 -13 168 -17
13 -69 50 -115 82 -45 32 -80 60 -78 62 7 7 112 -20 177 -47 124 -52 210 -109
305 -204 99 -100 142 -161 220 -311 177 -340 236 -652 189 -995 -30 -210 -86
-361 -223 -599 -216 -376 -301 -636 -437 -1336 -159 -820 -209 -1010 -357
-1360 -158 -372 -347 -652 -523 -775 -43 -30 -122 -60 -157 -60 -70 0 -141 69
-198 192 -39 84 -48 145 -65 458 -21 365 -46 533 -151 990 -91 400 -119 461
-222 490 -80 22 -152 -25 -198 -129 -38 -85 -49 -135 -115 -516 -11 -60 -30
-256 -44 -435 -30 -397 -30 -395 -65 -501 -34 -103 -75 -181 -142 -271 -58
-79 -101 -118 -131 -118 -33 0 -103 38 -154 85 -125 112 -338 473 -467 791
-140 347 -193 564 -392 1604 -94 491 -169 726 -311 978 -150 267 -214 457
-233 700 -12 145 -1 338 26 465 62 299 253 603 445 710 131 73 164 81 354 81
l170 0 95 -36 c106 -40 299 -121 345 -144 112 -56 224 -1 191 94 -11 31 -105
117 -213 195 -51 36 -46 43 44 56 81 12 128 12 207 1z"/>
</g>
</svg>
