<?xml version="1.0" standalone="no"?>
<!DOCTYPE svg PUBLIC "-//W3C//DTD SVG 20010904//EN"
 "http://www.w3.org/TR/2001/REC-SVG-20010904/DTD/svg10.dtd">
<svg version="1.0" xmlns="http://www.w3.org/2000/svg"
 width="699.000000pt" height="699.000000pt" viewBox="0 0 699.000000 699.000000"
 preserveAspectRatio="xMidYMid meet">
<g transform="translate(0.000000,699.000000) scale(0.100000,-0.100000)"
fill="#ffffff" stroke="none">
<path d="M2825 6265 c-87 -47 -141 -143 -203 -365 -75 -265 -105 -375 -113
-415 -8 -36 -37 -303 -55 -495 -6 -71 -24 -153 -74 -335 -31 -117 -32 -117
-47 -30 -9 53 -17 238 -23 550 -9 485 -15 571 -48 665 -40 114 -124 244 -168
260 -68 26 -143 0 -165 -59 -6 -14 -14 -93 -18 -176 -8 -147 -9 -152 -50 -245
-23 -52 -53 -120 -66 -150 -14 -30 -25 -50 -25 -45 -2 52 -31 312 -40 355 -16
72 -66 166 -104 195 -66 48 -116 37 -184 -40 -45 -52 -106 -157 -124 -216
l-11 -37 -31 36 c-64 73 -171 93 -259 48 -28 -14 -50 -19 -53 -14 -11 18 -88
48 -122 48 -42 0 -93 -21 -121 -51 -27 -28 -95 -170 -106 -217 l-7 -34 -21 20
c-33 29 -91 45 -139 37 -30 -5 -55 -20 -90 -53 -63 -59 -101 -128 -129 -232
-57 -220 -70 -352 -74 -747 -4 -294 -6 -329 -27 -415 -20 -81 -23 -118 -23
-293 0 -193 1 -204 32 -322 34 -129 56 -181 97 -230 24 -28 25 -34 16 -89 -53
-319 -53 -379 -4 -682 23 -144 85 -322 176 -507 57 -116 181 -436 202 -525 2
-8 12 -35 22 -60 30 -77 59 -97 94 -65 16 15 19 13 33 -22 8 -21 34 -57 58
-80 47 -48 88 -57 112 -23 12 18 15 13 37 -63 30 -108 42 -120 102 -115 75 8
123 46 163 130 34 70 35 70 45 44 5 -15 10 -33 10 -40 0 -23 37 -123 72 -191
33 -66 86 -125 112 -125 65 0 180 326 193 544 4 78 9 103 15 86 5 -12 15 -37
22 -54 14 -30 63 -166 112 -309 47 -140 132 -260 223 -319 77 -48 101 -37 136
67 24 72 44 224 45 339 0 54 7 173 16 265 9 91 14 211 12 266 -3 75 -1 91 6
65 5 -19 25 -80 44 -135 19 -55 43 -125 54 -155 48 -140 125 -325 184 -448 88
-179 258 -301 322 -231 40 42 77 184 93 354 0 6 9 -33 20 -85 26 -123 76 -225
144 -295 49 -51 57 -55 99 -55 37 0 52 6 82 32 92 81 124 185 144 475 12 159
8 320 -19 823 -8 147 -8 162 9 331 10 99 39 239 50 239 11 0 40 -140 50 -239
17 -169 17 -184 9 -331 -27 -503 -31 -664 -19 -823 20 -290 52 -394 144 -475
30 -26 45 -32 82 -32 42 0 50 4 99 55 68 70 118 172 144 295 11 52 20 91 20
85 16 -170 53 -312 93 -354 64 -70 237 55 323 234 63 131 137 311 183 445 11
30 35 100 54 155 19 55 39 116 44 135 7 26 9 10 6 -65 -2 -55 3 -175 12 -266
9 -92 16 -211 16 -265 1 -115 21 -267 45 -339 35 -104 59 -115 136 -67 91 59
175 179 223 319 65 188 107 303 124 341 l19 43 6 -108 c12 -215 128 -543 193
-543 26 0 79 59 112 125 35 68 72 168 72 191 0 7 5 25 10 40 10 26 11 26 45
-44 40 -84 88 -122 163 -130 37 -3 50 0 63 14 14 17 37 85 54 158 6 29 6 29
21 7 25 -35 65 -27 113 22 24 23 50 59 58 80 14 35 17 37 33 22 35 -32 64 -12
94 65 10 25 20 52 22 60 21 89 145 409 202 525 90 183 153 365 176 510 49 300
49 361 -4 679 -9 55 -8 61 16 89 41 49 63 101 97 230 31 118 32 129 32 322 0
175 -3 212 -23 293 -21 86 -23 121 -27 415 -4 395 -17 527 -74 747 -53 201
-178 318 -298 280 -21 -7 -48 -21 -60 -32 l-21 -20 -7 34 c-11 47 -79 189
-106 217 -28 30 -79 51 -124 51 -34 0 -108 -30 -119 -49 -3 -4 -27 2 -53 15
-88 45 -195 25 -259 -48 l-31 -36 -11 37 c-18 59 -79 164 -124 216 -68 77
-118 88 -184 40 -38 -29 -88 -123 -104 -195 -9 -43 -38 -303 -40 -355 0 -5
-11 15 -25 45 -117 267 -106 231 -115 395 -5 83 -13 162 -19 176 -22 59 -97
85 -165 59 -44 -16 -128 -146 -168 -260 -33 -94 -39 -181 -48 -655 -7 -416
-21 -635 -39 -635 -4 0 -13 30 -22 68 -9 37 -30 119 -47 182 -16 63 -33 149
-36 190 -17 183 -47 458 -55 495 -8 40 -38 150 -113 415 -51 183 -96 278 -156
330 -52 46 -81 53 -195 49 -74 -4 -88 -7 -121 -33 -21 -15 -50 -46 -66 -67
-37 -52 -88 -210 -106 -334 -8 -55 -19 -116 -24 -135 -20 -77 -31 -207 -40
-455 -13 -335 -24 -402 -110 -680 -17 -55 -34 -110 -37 -122 -3 -13 -9 -23
-13 -23 -4 0 -10 10 -13 23 -3 12 -20 67 -37 122 -86 278 -97 345 -110 680 -9
248 -20 378 -40 455 -5 19 -16 80 -24 135 -18 124 -69 282 -106 334 -16 21
-45 52 -66 67 -35 27 -45 29 -138 32 -78 2 -108 -1 -131 -13z m148 -249 c17
-37 51 -172 62 -251 3 -27 15 -93 25 -145 13 -64 21 -164 25 -305 11 -392 34
-534 134 -848 62 -191 88 -295 100 -387 15 -126 33 -427 34 -596 1 -183 -9
-220 -68 -249 -80 -40 -527 -18 -729 37 -110 29 -126 46 -136 138 -14 121 17
489 49 595 10 33 26 92 35 130 79 341 120 508 146 590 24 76 45 218 65 438 18
201 28 272 50 347 8 30 27 98 40 150 14 52 42 149 62 215 55 184 73 208 106
141z m1090 7 c16 -32 74 -220 112 -363 13 -52 32 -120 40 -150 22 -75 32 -146
50 -350 20 -228 40 -357 69 -450 13 -41 31 -106 40 -145 9 -38 25 -108 37
-155 12 -47 36 -150 55 -230 18 -80 40 -163 47 -186 29 -80 60 -468 47 -585
-7 -60 -13 -77 -33 -95 -61 -52 -327 -95 -607 -97 -284 -3 -294 6 -293 267 1
169 19 470 34 596 12 92 38 196 100 387 100 314 123 456 134 848 4 141 12 241
25 305 10 52 22 118 25 145 11 79 45 214 62 251 20 41 38 43 56 7z m-3193
-413 c10 -19 4 -44 -35 -135 -24 -58 -53 -150 -60 -195 -4 -25 -20 -97 -37
-160 -27 -103 -39 -151 -83 -340 -8 -30 -23 -97 -34 -148 -11 -50 -27 -116
-36 -145 -60 -203 -95 -423 -95 -607 0 -205 24 -346 85 -505 24 -63 24 -75 -1
-75 -23 0 -77 135 -100 255 -28 139 -15 513 26 747 10 60 61 270 81 333 64
207 84 310 95 485 6 89 12 117 42 185 19 44 41 107 48 140 20 82 64 185 80
185 7 0 18 -9 24 -20z m5303 -42 c14 -35 33 -90 41 -123 7 -33 29 -96 48 -140
30 -68 36 -96 42 -185 11 -175 31 -278 95 -485 20 -63 71 -273 81 -333 41
-234 54 -608 26 -747 -23 -120 -77 -255 -100 -255 -25 0 -25 12 -1 75 35 90
62 199 76 302 14 112 6 398 -14 498 -32 158 -50 233 -68 297 -11 37 -29 109
-40 160 -11 51 -26 118 -34 148 -45 190 -56 235 -80 325 -14 55 -33 134 -41
176 -8 41 -26 104 -40 140 -55 139 -64 171 -53 190 17 33 34 21 62 -43z
m-5045 5 c6 -10 22 -64 36 -120 25 -98 26 -105 10 -140 -18 -43 -36 -105 -88
-313 -66 -263 -86 -333 -130 -475 -104 -332 -110 -362 -111 -590 0 -208 3
-230 66 -414 l38 -114 -35 -48 c-34 -47 -64 -66 -84 -54 -16 10 -35 52 -68
150 -44 131 -50 157 -62 294 -17 186 5 393 64 608 8 29 17 65 20 80 2 15 18
80 34 143 17 63 35 142 42 175 6 33 24 110 40 170 16 61 48 184 70 275 23 91
58 208 79 260 21 52 41 103 44 113 4 9 11 17 16 17 6 0 14 -8 19 -17z m4797
-98 c24 -61 62 -184 85 -275 22 -91 54 -214 70 -275 16 -60 34 -137 41 -170
13 -70 83 -358 104 -430 49 -171 71 -396 55 -574 -6 -69 -16 -144 -21 -166
-20 -77 -83 -247 -99 -267 -23 -29 -52 -17 -94 41 l-35 48 38 114 c63 184 66
206 66 414 -1 228 -7 258 -111 590 -44 142 -64 212 -130 475 -52 207 -70 270
-88 311 -14 35 -14 43 10 140 28 112 40 142 55 137 5 -2 30 -53 54 -113z
m-4402 -2 c6 -74 19 -151 67 -413 23 -123 21 -152 -16 -350 -46 -236 -73 -578
-74 -910 0 -195 6 -173 -87 -312 -64 -96 -82 -117 -115 -134 -28 -14 -31 -14
-50 3 -37 33 -129 275 -154 408 -27 136 -12 338 36 500 12 39 25 84 29 100 5
17 20 64 34 105 28 81 102 357 122 455 18 87 81 292 131 426 24 64 46 135 50
158 4 22 10 41 14 41 4 0 10 -35 13 -77z m3961 36 c4 -23 26 -94 50 -158 50
-132 113 -338 131 -426 20 -96 94 -372 126 -470 44 -133 48 -148 65 -212 44
-164 56 -348 30 -478 -25 -133 -117 -375 -155 -409 -18 -16 -22 -16 -49 -2
-33 17 -51 38 -115 134 -92 139 -87 119 -87 297 -1 339 -29 692 -74 925 -37
192 -39 237 -16 355 42 218 61 331 67 408 3 42 9 77 13 77 4 0 10 -19 14 -41z
m-3410 -439 c7 -360 13 -454 40 -615 9 -49 23 -133 31 -185 9 -52 24 -140 34
-195 17 -91 18 -113 6 -250 -11 -130 -37 -332 -51 -402 -6 -30 -49 -37 -155
-24 -91 12 -199 37 -212 50 -4 4 -13 85 -19 179 -9 133 -9 215 0 360 22 331
33 454 53 596 29 206 52 321 86 436 32 112 51 164 79 228 13 29 24 55 24 58 0
2 14 39 32 80 24 58 33 72 38 58 4 -11 10 -179 14 -374z m2897 284 c17 -44 39
-97 49 -119 23 -53 43 -111 73 -215 34 -115 57 -230 86 -436 20 -142 31 -264
53 -597 9 -148 9 -225 0 -360 -7 -94 -16 -175 -20 -179 -12 -12 -122 -37 -211
-49 -106 -13 -149 -6 -155 24 -14 70 -40 272 -51 402 -12 137 -11 159 6 250
10 55 25 143 34 195 8 52 22 136 31 185 27 162 34 265 40 605 3 184 7 351 10
370 7 41 10 37 55 -76z m-4455 -19 c10 -24 11 -47 4 -91 -5 -33 -14 -113 -19
-179 -10 -129 -20 -176 -81 -385 -21 -74 -48 -173 -59 -220 -11 -47 -22 -94
-25 -105 -3 -11 -3 102 0 250 6 284 22 424 65 569 29 97 79 207 91 200 6 -4
16 -21 24 -39z m6054 -134 c50 -153 68 -305 74 -601 3 -146 3 -256 0 -245 -3
11 -14 58 -25 105 -11 47 -36 139 -56 205 -66 225 -77 283 -94 480 -15 173
-15 180 6 211 l18 28 24 -48 c13 -26 37 -87 53 -135z m-4782 -2011 l92 -22 0
-68 c0 -79 19 -189 48 -275 18 -53 21 -93 25 -350 4 -224 10 -319 25 -415 32
-197 44 -370 32 -485 -5 -55 -10 -127 -10 -160 l-1 -60 -40 105 c-22 58 -44
116 -48 130 -5 14 -22 54 -38 90 -28 61 -55 127 -131 326 -51 134 -121 350
-152 475 -27 106 -30 133 -30 276 0 115 6 189 21 273 11 63 23 133 25 155 9
67 9 68 51 47 21 -11 80 -29 131 -42z m3585 -2 c4 -29 16 -102 27 -163 14 -80
20 -154 20 -268 0 -144 -3 -169 -31 -280 -49 -195 -196 -610 -284 -802 -15
-33 -31 -71 -36 -85 -4 -14 -26 -72 -48 -130 l-40 -105 -1 55 c0 30 -5 104
-10 164 -12 122 -2 277 32 486 15 96 21 192 25 415 4 257 7 297 25 350 29 86
48 196 48 275 l0 68 93 22 c50 13 108 31 127 40 19 10 38 16 41 14 3 -2 9 -27
12 -56z m-3103 -33 c41 -44 115 -85 196 -109 l79 -23 6 -129 c6 -122 20 -214
56 -349 16 -64 40 -171 48 -220 3 -16 10 -52 15 -80 58 -298 68 -457 53 -798
l-8 -179 -62 159 c-80 205 -100 263 -168 473 -31 96 -63 191 -71 210 -42 106
-138 404 -187 580 -19 69 -44 150 -57 180 -30 76 -38 112 -46 208 l-7 82 39 1
c22 0 48 4 59 9 29 12 29 12 55 -15z m2544 7 l49 -5 -7 -81 c-8 -94 -16 -131
-46 -206 -13 -30 -38 -111 -57 -180 -50 -180 -134 -441 -193 -595 -10 -27 -42
-122 -70 -210 -62 -194 -84 -254 -163 -458 l-62 -159 -8 179 c-15 341 -5 500
53 798 5 28 12 64 15 80 8 49 32 156 48 220 36 135 50 227 56 349 l6 129 79
23 c82 25 155 65 196 109 15 16 30 23 40 19 8 -3 37 -9 64 -12z m-3540 -52
c70 0 77 -2 72 -17 -19 -48 -28 -193 -24 -376 5 -187 7 -211 36 -317 35 -128
42 -171 72 -410 31 -257 49 -498 43 -574 l-6 -68 -62 123 c-61 123 -141 275
-155 294 -16 22 -89 194 -114 270 -38 112 -53 189 -66 345 -6 74 -21 178 -32
230 -27 125 -21 204 27 395 l38 151 46 -23 c36 -17 64 -22 125 -23z m4642
-105 c47 -183 53 -271 26 -395 -11 -52 -26 -156 -32 -230 -13 -156 -28 -233
-66 -345 -43 -129 -105 -259 -205 -435 -31 -54 -119 -238 -120 -252 -1 -7 -5
16 -10 52 -12 94 14 403 67 780 8 58 28 157 46 220 29 107 31 129 36 317 4
183 -5 328 -24 376 -5 15 2 17 72 17 61 1 90 6 124 23 25 12 46 20 47 17 2 -3
19 -68 39 -145z m-5306 68 c-7 -32 -22 -89 -34 -128 -19 -62 -21 -94 -20 -280
0 -210 5 -249 51 -409 3 -11 1 -16 -5 -12 -10 6 -84 175 -103 236 -6 19 -16
81 -23 137 -15 126 -7 215 36 385 l32 127 36 3 c19 2 37 2 39 1 2 -2 -2 -29
-9 -60z m5859 -76 c18 -73 36 -165 40 -205 8 -76 -8 -246 -28 -312 -19 -61
-93 -230 -103 -236 -6 -4 -8 1 -5 12 46 160 51 199 51 409 1 191 -1 217 -22
290 -54 184 -53 182 -4 177 l38 -4 33 -131z m-5603 61 c-46 -147 -59 -352 -31
-476 8 -37 21 -139 29 -227 26 -289 101 -508 280 -824 l37 -64 -20 -56 c-10
-31 -22 -71 -26 -88 -3 -18 -10 -33 -14 -33 -4 0 -15 35 -25 78 -28 120 -143
443 -207 577 -5 11 -18 45 -28 75 -11 30 -31 86 -45 124 -43 116 -84 295 -96
426 -13 144 -4 246 36 398 13 52 24 103 24 113 0 16 8 19 49 19 l50 0 -13 -42z
m5331 25 c1 -10 13 -61 27 -114 40 -152 49 -254 36 -399 -12 -131 -53 -310
-96 -426 -14 -38 -34 -94 -45 -124 -10 -30 -23 -64 -28 -75 -5 -11 -16 -36
-24 -55 -8 -19 -30 -73 -50 -120 -47 -114 -111 -307 -133 -402 -10 -43 -21
-78 -25 -78 -4 0 -11 15 -14 33 -4 17 -16 57 -26 88 l-20 56 37 64 c179 316
254 535 280 824 8 88 21 190 29 227 28 124 15 329 -31 476 l-13 42 47 0 c38 0
48 -4 49 -17z m-3099 -108 l182 0 0 -40 c0 -71 -19 -211 -35 -255 -8 -24 -25
-102 -37 -174 -24 -150 -27 -382 -9 -626 17 -226 24 -549 13 -610 -6 -34 -10
-44 -11 -26 -1 32 -47 301 -60 356 -5 19 -12 60 -16 90 -14 117 -82 377 -148
565 -45 129 -68 192 -140 391 -27 73 -47 199 -47 291 l0 53 63 -8 c34 -4 144
-7 245 -7z m1092 -38 c0 -92 -20 -218 -47 -291 -182 -499 -205 -570 -262 -816
-11 -47 -23 -110 -26 -140 -4 -30 -11 -71 -16 -90 -13 -55 -59 -324 -60 -356
-1 -20 -4 -14 -11 21 -10 57 -3 415 13 615 18 232 15 477 -9 626 -12 72 -29
150 -37 174 -16 44 -35 184 -35 255 l0 40 152 -3 c84 -2 187 1 228 6 41 5 83
10 93 11 14 1 17 -8 17 -52z"/>
</g>
</svg>
