<?xml version="1.0" standalone="no"?>
<!DOCTYPE svg PUBLIC "-//W3C//DTD SVG 20010904//EN"
 "http://www.w3.org/TR/2001/REC-SVG-20010904/DTD/svg10.dtd">
<svg version="1.0" xmlns="http://www.w3.org/2000/svg"
 width="1000.000000pt" height="1000.000000pt" viewBox="0 0 1000.000000 1000.000000"
 preserveAspectRatio="xMidYMid meet">
<g transform="translate(0.000000,1000.000000) scale(0.100000,-0.100000)"
fill="#ffffff" stroke="none">
<path d="M5805 9180 c-241 -242 -437 -442 -434 -444 2 -3 82 -83 177 -179
l173 -174 -488 -6 c-528 -6 -698 -18 -908 -67 -27 -6 -65 -12 -82 -12 -18 0
-33 -4 -33 -9 0 -4 -6 -6 -14 -3 -26 10 -536 -147 -544 -168 -2 -4 -7 -6 -12
-3 -8 5 -201 -79 -270 -119 -25 -14 -51 -26 -59 -26 -8 0 -76 -38 -153 -85
-76 -47 -142 -85 -147 -85 -4 0 -24 -12 -43 -27 -20 -16 -61 -46 -93 -68 -31
-22 -62 -45 -68 -51 -7 -5 -20 -13 -29 -17 -10 -3 -18 -11 -18 -17 0 -6 -4 -9
-9 -5 -5 3 -16 -3 -23 -13 -7 -10 -58 -54 -113 -99 -132 -106 -375 -348 -465
-462 -14 -17 -33 -39 -42 -48 -10 -10 -18 -23 -18 -30 0 -6 -6 -16 -13 -20
-20 -12 -107 -126 -107 -140 0 -6 -4 -13 -8 -15 -7 -3 -89 -119 -117 -166 -88
-147 -265 -486 -265 -507 0 -7 -7 -18 -15 -25 -9 -7 -14 -19 -11 -27 3 -7 2
-13 -3 -13 -4 0 -8 -7 -8 -15 0 -8 -11 -43 -26 -77 -54 -134 -87 -229 -82
-238 4 -6 2 -10 -3 -10 -9 0 -20 -34 -42 -140 -6 -30 -24 -111 -40 -180 -31
-139 -63 -320 -59 -341 1 -8 -1 -22 -6 -32 -4 -10 -5 -33 -2 -52 3 -19 2 -37
-3 -40 -10 -6 -13 -633 -3 -649 4 -6 6 -27 4 -48 -1 -21 1 -42 4 -48 4 -6 9
-37 11 -68 4 -61 79 -438 95 -481 6 -14 12 -41 15 -60 2 -19 9 -40 14 -46 5
-7 8 -14 5 -17 -6 -5 34 -118 85 -243 18 -44 34 -91 36 -105 1 -13 8 -26 13
-28 6 -2 11 -11 11 -20 0 -10 27 -71 61 -137 63 -123 95 -187 110 -218 17 -33
34 -61 61 -100 15 -22 25 -43 22 -48 -3 -5 2 -12 10 -15 9 -3 16 -12 16 -20 0
-8 4 -14 10 -14 5 0 12 -11 16 -25 3 -14 10 -25 15 -25 5 0 9 -6 9 -14 0 -8 3
-16 8 -18 11 -5 82 -107 82 -118 0 -6 5 -10 10 -10 6 0 10 -7 10 -15 0 -8 4
-15 8 -15 5 0 37 -37 73 -82 35 -46 85 -107 112 -138 84 -94 276 -290 284
-290 5 0 38 -29 73 -65 36 -35 70 -65 75 -65 6 0 16 -9 23 -20 7 -11 17 -20
23 -20 5 0 20 -9 32 -21 12 -11 51 -42 87 -67 36 -26 67 -50 68 -54 2 -5 8 -8
13 -8 6 0 58 -33 117 -74 59 -40 134 -87 167 -104 33 -16 109 -57 169 -91 60
-33 113 -58 118 -55 4 3 8 1 8 -4 0 -6 12 -13 28 -16 15 -4 41 -13 57 -21 78
-37 289 -116 360 -135 44 -12 110 -30 146 -40 152 -45 556 -117 605 -107 13 2
24 1 24 -4 0 -4 144 -8 320 -8 176 0 320 4 320 8 0 5 11 6 24 4 53 -11 451 61
622 112 49 15 103 29 119 31 47 8 306 106 365 138 14 8 40 17 58 21 17 3 32
11 32 17 0 6 3 9 6 5 7 -6 101 39 164 78 19 12 69 39 110 60 84 44 160 91 235
147 27 21 56 38 63 38 6 0 12 5 12 10 0 6 6 10 14 10 8 0 16 3 18 8 2 4 33 30
71 57 37 27 67 52 67 57 0 4 7 8 15 8 8 0 20 9 27 20 7 11 17 20 23 20 5 0 39
30 75 65 35 36 68 65 73 65 21 0 301 304 412 448 27 34 52 62 57 62 5 0 6 5 3
10 -3 6 1 13 9 16 9 3 16 10 16 15 0 11 72 113 82 117 5 2 8 10 8 18 0 8 4 14
9 14 5 0 12 11 15 25 4 14 11 25 16 25 6 0 10 6 10 14 0 8 7 16 15 20 8 3 14
9 13 14 -2 5 15 39 37 76 63 108 215 409 215 429 0 9 5 17 10 17 6 0 10 8 10
18 0 10 12 47 26 83 52 126 104 272 99 277 -3 3 0 10 5 17 5 6 12 29 15 51 2
21 9 50 14 64 28 70 108 501 97 519 -4 5 -1 13 5 16 6 4 9 26 8 49 -2 23 0 46
3 52 4 5 7 82 7 172 l1 162 -620 0 -620 0 0 -22 c0 -72 -23 -303 -40 -400 -10
-62 -35 -169 -55 -238 -21 -69 -39 -135 -41 -146 -4 -24 -49 -145 -63 -171
-12 -23 -97 -203 -105 -223 -3 -8 -24 -44 -45 -80 -22 -36 -53 -89 -70 -118
-17 -28 -36 -52 -41 -52 -6 0 -10 -7 -10 -15 0 -8 -4 -15 -10 -15 -5 0 -10 -6
-10 -14 0 -8 -7 -16 -15 -20 -8 -3 -15 -11 -15 -19 0 -7 -20 -35 -45 -60 -25
-26 -45 -52 -45 -57 0 -5 -7 -13 -15 -18 -9 -4 -35 -31 -58 -59 -37 -46 -101
-106 -236 -225 -23 -21 -45 -38 -48 -38 -5 0 -76 -54 -106 -81 -10 -9 -38 -27
-62 -39 -25 -13 -45 -27 -45 -32 0 -4 -5 -8 -10 -8 -6 0 -34 -15 -63 -33 -94
-60 -328 -167 -472 -215 -49 -16 -143 -40 -207 -53 -65 -12 -118 -26 -118 -31
0 -5 -4 -7 -9 -4 -5 3 -55 -2 -112 -11 -143 -23 -495 -23 -638 0 -57 9 -107
14 -112 11 -5 -3 -9 -1 -9 4 0 5 -53 19 -117 31 -65 13 -158 37 -208 53 -157
53 -380 157 -500 233 -38 25 -84 52 -101 60 -17 9 -40 24 -50 33 -11 10 -55
45 -99 78 -98 75 -240 203 -290 264 -21 25 -46 51 -56 58 -11 7 -19 19 -19 27
0 8 -8 19 -19 24 -10 6 -38 40 -62 76 -24 35 -47 65 -51 65 -5 0 -8 5 -8 10 0
6 -9 21 -21 33 -11 12 -29 38 -40 57 -11 19 -25 44 -32 55 -48 77 -75 125 -86
155 -8 19 -30 67 -49 105 -19 39 -39 78 -43 88 -10 19 -55 138 -58 150 0 4 -1
8 -2 10 0 1 -2 9 -4 17 -1 8 -19 71 -39 139 -129 442 -123 931 18 1363 14 42
27 88 30 102 11 58 30 109 87 221 23 44 41 85 41 90 0 13 38 88 48 95 4 3 18
27 31 54 38 77 43 86 51 86 5 0 8 6 8 14 0 8 3 16 8 18 4 2 32 38 62 81 70 98
74 104 228 269 70 75 132 136 139 137 6 1 23 15 37 31 24 29 121 104 257 199
66 46 341 192 406 215 21 8 52 20 68 26 17 7 37 14 45 15 8 2 65 19 125 39
122 40 308 81 430 95 114 13 998 14 993 1 -1 -5 -78 -85 -170 -178 -93 -92
-168 -175 -168 -183 1 -8 196 -212 435 -454 l435 -440 331 335 c1184 1196
1534 1553 1538 1562 2 5 -23 36 -56 67 -106 102 -1778 1793 -1781 1802 -2 5
-11 9 -20 9 -10 0 -215 -198 -457 -440z"/>
</g>
</svg>
